<?xml version="1.0" encoding="utf-8"?>
<!-- Generator: Adobe Illustrator 16.0.0, SVG Export Plug-In . SVG Version: 6.00 Build 0)  -->
<!DOCTYPE svg PUBLIC "-//W3C//DTD SVG 1.1//EN" "http://www.w3.org/Graphics/SVG/1.1/DTD/svg11.dtd">
<svg version="1.1" xmlns="http://www.w3.org/2000/svg" xmlns:xlink="http://www.w3.org/1999/xlink" x="0px" y="0px" width="546px"
	 height="150.5px" viewBox="0 0 546 150.5" enable-background="new 0 0 546 150.5" xml:space="preserve">
<g id="Layer_2">
	<g>
		<path fill="#48373F" d="M232.623,39.455v14.824h-38.744v18.529h33.578v13.7h-33.578v33.128h-17.631V39.455H232.623z"/>
		<path fill="#48373F" d="M256.316,61.578v10.781h0.225c0.746-1.797,1.758-3.462,3.031-4.998c1.271-1.534,2.732-2.844,4.381-3.93
			c1.645-1.084,3.404-1.927,5.277-2.527c1.871-0.598,3.818-0.898,5.84-0.898c1.047,0,2.207,0.188,3.48,0.562V75.39
			c-0.748-0.149-1.646-0.281-2.695-0.393c-1.049-0.112-2.059-0.168-3.031-0.168c-2.92,0-5.391,0.488-7.412,1.459
			c-2.021,0.974-3.65,2.302-4.885,3.987c-1.236,1.685-2.117,3.65-2.639,5.896c-0.525,2.246-0.787,4.68-0.787,7.3v26.166h-15.945
			V61.578H256.316z"/>
		<path fill="#48373F" d="M283.156,78.029c1.42-3.779,3.441-7,6.062-9.658c2.621-2.657,5.766-4.716,9.434-6.176
			s7.785-2.19,12.354-2.19c4.566,0,8.703,0.73,12.408,2.19c3.707,1.46,6.869,3.52,9.49,6.176c2.619,2.658,4.641,5.878,6.064,9.658
			c1.42,3.781,2.133,7.993,2.133,12.634c0,4.643-0.713,8.835-2.133,12.578c-1.424,3.744-3.445,6.945-6.064,9.602
			c-2.621,2.658-5.783,4.699-9.49,6.12c-3.705,1.421-7.842,2.134-12.408,2.134c-4.568,0-8.686-0.712-12.354-2.134
			s-6.812-3.462-9.434-6.12c-2.621-2.657-4.643-5.857-6.062-9.602c-1.424-3.743-2.135-7.935-2.135-12.578
			C281.021,86.022,281.732,81.811,283.156,78.029z M297.643,97.457c0.449,2.209,1.215,4.194,2.301,5.952
			c1.086,1.76,2.527,3.164,4.324,4.211c1.797,1.049,4.043,1.572,6.738,1.572s4.959-0.523,6.793-1.572
			c1.834-1.047,3.295-2.451,4.381-4.211c1.084-1.758,1.854-3.743,2.303-5.952c0.449-2.207,0.674-4.473,0.674-6.794
			c0-2.32-0.225-4.604-0.674-6.85c-0.449-2.246-1.219-4.229-2.303-5.952c-1.086-1.721-2.547-3.125-4.381-4.211
			c-1.834-1.084-4.098-1.628-6.793-1.628s-4.941,0.544-6.738,1.628c-1.797,1.086-3.238,2.49-4.324,4.211
			c-1.086,1.723-1.852,3.706-2.301,5.952c-0.449,2.246-0.674,4.53-0.674,6.85C296.969,92.984,297.193,95.25,297.643,97.457z"/>
		<path fill="#48373F" d="M366.594,61.578v8.085h0.336c2.021-3.369,4.641-5.82,7.861-7.355c3.219-1.534,6.514-2.302,9.883-2.302
			c4.268,0,7.766,0.581,10.5,1.741c2.732,1.162,4.885,2.771,6.457,4.829c1.572,2.06,2.676,4.567,3.312,7.524
			c0.635,2.958,0.955,6.232,0.955,9.826v35.711h-15.947V86.845c0-4.79-0.748-8.366-2.246-10.725
			c-1.498-2.358-4.154-3.537-7.973-3.537c-4.344,0-7.488,1.292-9.434,3.874c-1.947,2.583-2.92,6.833-2.92,12.746v30.433h-15.945
			V61.578H366.594z"/>
		<path fill="#48373F" d="M449.918,61.578v10.668h-11.68v28.749c0,2.695,0.449,4.492,1.348,5.39s2.695,1.348,5.391,1.348
			c0.898,0,1.758-0.037,2.582-0.112c0.824-0.074,1.609-0.186,2.359-0.337v12.353c-1.348,0.225-2.846,0.374-4.492,0.449
			c-1.648,0.074-3.258,0.112-4.828,0.112c-2.471,0-4.812-0.168-7.02-0.505c-2.209-0.337-4.154-0.991-5.84-1.965
			c-1.684-0.972-3.014-2.358-3.986-4.155c-0.975-1.797-1.461-4.155-1.461-7.075V72.246h-9.656V61.578h9.656V44.171h15.947v17.406
			H449.918z"/>
		<path fill="#962D50" d="M473.949,39.455v80.182h-15.947V39.455H473.949z"/>
		<path fill="#962D50" d="M507.975,136.93c-3.07,2.021-7.338,3.032-12.803,3.032c-1.646,0-3.275-0.056-4.885-0.168
			s-3.238-0.244-4.885-0.393v-13.139c1.496,0.149,3.033,0.298,4.605,0.449c1.57,0.149,3.143,0.186,4.715,0.112
			c2.096-0.225,3.65-1.049,4.662-2.47c1.01-1.423,1.516-2.996,1.516-4.717c0-1.272-0.225-2.471-0.674-3.594L479.9,61.578h16.957
			l13.139,39.754h0.225l12.689-39.754h16.508l-24.256,65.246C513.439,131.54,511.043,134.909,507.975,136.93z"/>
	</g>
</g>
<g id="Frontly">
	<g>
		<g>
			<polygon fill="#48373F" points="54.181,4.306 6.977,71.763 50.291,143.698 121.553,124.197 144.373,77.104 121.553,24.67 			"/>
			<radialGradient id="SVGID_1_" cx="184.7109" cy="154.4482" r="144.9135" gradientUnits="userSpaceOnUse">
				<stop  offset="0.2864" style="stop-color:#EC008C"/>
				<stop  offset="0.4297" style="stop-color:#B3006A"/>
				<stop  offset="0.6353" style="stop-color:#67003D"/>
				<stop  offset="0.8057" style="stop-color:#2F001C"/>
				<stop  offset="0.9319" style="stop-color:#0D0008"/>
				<stop  offset="1" style="stop-color:#000000"/>
			</radialGradient>
			<polygon fill="url(#SVGID_1_)" points="54.181,4.306 6.977,71.763 50.291,143.698 121.553,124.197 144.373,77.104 121.553,24.67 
							"/>
			<polygon opacity="0.2" fill="#231F20" points="6.977,71.763 144.373,77.104 121.553,124.197 50.291,143.698 			"/>
			<g>
				<linearGradient id="SVGID_2_" gradientUnits="userSpaceOnUse" x1="70.0181" y1="26.3325" x2="70.0181" y2="119.6362">
					<stop  offset="0" style="stop-color:#FAAF40"/>
					<stop  offset="0.1778" style="stop-color:#FAAC3C"/>
					<stop  offset="0.3471" style="stop-color:#F8A231"/>
					<stop  offset="0.51" style="stop-color:#F6921E"/>
					<stop  offset="0.83" style="stop-color:#F05A28"/>
					<stop  offset="0.9347" style="stop-color:#ED3125"/>
					<stop  offset="1" style="stop-color:#EC1C24"/>
				</linearGradient>
				<path fill="url(#SVGID_2_)" d="M55.815,119.636c0,0,2.595-18.265,11.048-24.845c8.454-6.581,19.088-19.138,21.565-27.898
					c2.477-8.76,5.463-25.436-4.115-40.56c0,0-2.998,24.799-23.385,40.211C40.542,81.956,51.953,109.575,55.815,119.636z"/>
				<linearGradient id="SVGID_3_" gradientUnits="userSpaceOnUse" x1="97.2925" y1="55.7563" x2="97.2925" y2="75.7056">
					<stop  offset="0" style="stop-color:#FAAF40"/>
					<stop  offset="0.1778" style="stop-color:#FAAC3C"/>
					<stop  offset="0.3471" style="stop-color:#F8A231"/>
					<stop  offset="0.51" style="stop-color:#F6921E"/>
					<stop  offset="0.83" style="stop-color:#F05A28"/>
					<stop  offset="0.9347" style="stop-color:#ED3125"/>
					<stop  offset="1" style="stop-color:#EC1C24"/>
				</linearGradient>
				<path fill="url(#SVGID_3_)" d="M92.37,75.706c0,0,0.315-3.591,4.97-8.721c4.654-5.13,2.962-11.228,2.962-11.228
					s3.771,7.624,0.722,11.928C97.977,71.988,95.264,70.398,92.37,75.706z"/>
				<linearGradient id="SVGID_4_" gradientUnits="userSpaceOnUse" x1="88.1401" y1="96.853" x2="88.1401" y2="106.4312">
					<stop  offset="0" style="stop-color:#FAAF40"/>
					<stop  offset="0.1778" style="stop-color:#FAAC3C"/>
					<stop  offset="0.3471" style="stop-color:#F8A231"/>
					<stop  offset="0.51" style="stop-color:#F6921E"/>
					<stop  offset="0.83" style="stop-color:#F05A28"/>
					<stop  offset="0.9347" style="stop-color:#ED3125"/>
					<stop  offset="1" style="stop-color:#EC1C24"/>
				</linearGradient>
				<path fill="url(#SVGID_4_)" d="M82.478,106.431c0,0,1.361-2.087,5.867-3.699c4.504-1.612,5.457-5.879,5.457-5.879
					s-0.182,5.873-3.44,7.503C87.104,105.987,85.968,104.138,82.478,106.431z"/>
				<linearGradient id="SVGID_5_" gradientUnits="userSpaceOnUse" x1="74.7134" y1="83.1704" x2="74.7134" y2="127.8745">
					<stop  offset="0" style="stop-color:#FAAF40"/>
					<stop  offset="0.1778" style="stop-color:#FAAC3C"/>
					<stop  offset="0.3471" style="stop-color:#F8A231"/>
					<stop  offset="0.51" style="stop-color:#F6921E"/>
					<stop  offset="0.83" style="stop-color:#F05A28"/>
					<stop  offset="0.9347" style="stop-color:#ED3125"/>
					<stop  offset="1" style="stop-color:#EC1C24"/>
				</linearGradient>
				<path fill="url(#SVGID_5_)" d="M66.135,127.875c0,0-9.153-6.946-3.516-18.818c5.638-11.873,15.71-15.048,22.762-22.04
					c1.143-1.132,2.183-2.444,3.124-3.846c0,0,1.496,8.371-5.359,14.039C69.807,108.238,64.321,116.109,66.135,127.875z"/>
				<path opacity="0.1" d="M81.326,98.745l0.002-0.01c0,0-6.615,3.895-12.682,11.002c-5.84,6.84-2.511,18.138-2.511,18.138
					C64.406,116.665,69.322,108.984,81.326,98.745z"/>
				<path opacity="0.1" d="M66.864,94.791c7.933-6.176,17.786-17.614,21.017-26.24c-0.045,0.073-8.75,14.263-17.862,19.861
					c-9.134,5.611-12.257,10.542-14.203,31.224C55.815,119.636,58.41,101.371,66.864,94.791z"/>
				<path opacity="0.1" d="M101.024,67.684c0.518-0.731,0.827-1.562,1.002-2.432c-0.079,0.128-1.876,2.942-3.312,3.659
					c-2.525,1.264-4.912,3.226-5.753,5.798h0.003C95.639,70.595,98.186,71.691,101.024,67.684z"/>
				<path opacity="0.1" d="M86.326,105.15l0.001,0.001c1.192-0.04,2.32,0.063,4.034-0.795c0.829-0.415,1.456-1.105,1.934-1.901
					C90.1,104.523,86.326,105.15,86.326,105.15z"/>
			</g>
			<polygon opacity="0.2" fill="#231F20" points="6.977,71.763 121.553,124.197 50.291,143.698 			"/>
			<polygon opacity="0.3" fill="#FFFFFF" points="54.181,4.306 144.373,77.104 121.553,24.67 			"/>
		</g>
	</g>
	<g>
	</g>
	<g>
	</g>
	<g>
	</g>
	<g>
	</g>
	<g>
	</g>
	<g>
	</g>
</g>
</svg>
